<svg xmlns="http://www.w3.org/2000/svg" viewBox="0 0 133.91 29.43"><defs><style>.cls-1{fill:#dadada;}</style></defs><g id="Capa_2" data-name="Capa 2"><g id="Capa_2-2" data-name="Capa 2"><path class="cls-1" d="M21.76,29l-2.89-8H7.81L5,29H0L10.82,0H16L26.78,29ZM17.62,16.93,14.91,9.06c-.19-.53-.47-1.36-.82-2.49s-.59-2-.72-2.5A44.16,44.16,0,0,1,11.81,9.4L9.2,16.93Z"/><path class="cls-1" d="M53.93,25.68a11.24,11.24,0,0,0,3.41-.54v3.5a9.65,9.65,0,0,1-2,.57,13.82,13.82,0,0,1-2.52.22q-6.61,0-6.61-7V10.68h-3V6.92h3.21L48,2.29h2.87V7.16h6.23v3.52H50.89V22.39a3.28,3.28,0,0,0,.84,2.48A3,3,0,0,0,53.93,25.68Z"/><path class="cls-1" d="M79.56,8.86a8.43,8.43,0,0,1-3,6.94q-3,2.41-8.45,2.42h-3V29H60.42V.12h8.32c3.62,0,6.32.74,8.12,2.21A8,8,0,0,1,79.56,8.86ZM65.14,14.24h2.52q3.63,0,5.34-1.26a4.64,4.64,0,0,0,1.7-4A4.49,4.49,0,0,0,73.17,5.3a7.47,7.47,0,0,0-4.74-1.23H65.14Z"/><path class="cls-1" d="M97.91,9.82a9.64,9.64,0,0,0-7.52-3.06,9.89,9.89,0,0,0-7.69,3Q80,12.74,80,18.06a13.56,13.56,0,0,0,1.26,6,9.15,9.15,0,0,0,3.62,4,10.53,10.53,0,0,0,5.42,1.38,9.88,9.88,0,0,0,7.66-3q2.75-3,2.75-8.37A11.83,11.83,0,0,0,97.91,9.82ZM90.35,25.64q-5.59,0-5.6-7.58a9.85,9.85,0,0,1,1.32-5.56,4.75,4.75,0,0,1,4.24-1.94q5.58,0,5.58,7.5T90.35,25.64Z"/><path class="cls-1" d="M118.48,22.81a5.73,5.73,0,0,1-2.33,4.91,11.21,11.21,0,0,1-6.69,1.71,15.86,15.86,0,0,1-7-1.32v-4a17.17,17.17,0,0,0,7.18,1.78q4.29,0,4.29-2.59a2.08,2.08,0,0,0-.47-1.38,5.73,5.73,0,0,0-1.57-1.15,27.17,27.17,0,0,0-3-1.35,14,14,0,0,1-5.12-2.92,5.42,5.42,0,0,1-1.33-3.8,5,5,0,0,1,2.26-4.36,10.72,10.72,0,0,1,6.16-1.56,17.45,17.45,0,0,1,7.3,1.57l-1.5,3.5a16.11,16.11,0,0,0-6-1.46c-2.46,0-3.68.69-3.68,2.09a2.1,2.1,0,0,0,1,1.74,20.66,20.66,0,0,0,4.18,2,19.21,19.21,0,0,1,3.94,1.92,5.84,5.84,0,0,1,1.82,2A5.87,5.87,0,0,1,118.48,22.81Z"/><path class="cls-1" d="M40.82,6.83c-.42,0-.89-.07-1.4-.07a6.77,6.77,0,0,0-3.77,1.15A8.62,8.62,0,0,0,32.81,11h-.24L32,7.16H28.32V29H33V17.6a7,7,0,0,1,1.73-4.72c1.87-2.19,3.52-2.2,6.12-2.2Z"/><path class="cls-1" d="M130.5,25.68a11.24,11.24,0,0,0,3.41-.54v3.5a9.65,9.65,0,0,1-2,.57,13.82,13.82,0,0,1-2.52.22q-6.62,0-6.61-7V10.68h-3V6.92H123l1.58-4.63h2.87V7.16h6.23v3.52h-6.23V22.39a3.28,3.28,0,0,0,.84,2.48A3,3,0,0,0,130.5,25.68Z"/></g></g></svg>